<?xml version="1.0" standalone="no"?>
<!DOCTYPE svg PUBLIC "-//W3C//DTD SVG 20010904//EN"
 "http://www.w3.org/TR/2001/REC-SVG-20010904/DTD/svg10.dtd">
<svg version="1.0" xmlns="http://www.w3.org/2000/svg"
 width="1600.000000pt" height="839.000000pt" viewBox="0 0 1600.000000 839.000000"
 preserveAspectRatio="xMidYMid meet">

<g transform="translate(0.000000,839.000000) scale(0.100000,-0.100000)"
fill="#000000" stroke="none">
<path d="M5255 5233 c-11 -3 -27 -11 -35 -18 -8 -7 -37 -25 -65 -39 -27 -15
-77 -43 -110 -63 -114 -68 -140 -83 -192 -108 -29 -15 -55 -30 -58 -35 -3 -5
-27 -19 -53 -32 -26 -13 -49 -26 -52 -29 -7 -7 -158 -93 -255 -145 -27 -15
-52 -30 -55 -34 -10 -14 -71 -41 -80 -35 -6 4 -23 29 -38 57 -15 27 -38 69
-52 93 -14 24 -40 69 -57 101 -56 102 -85 124 -164 124 -60 0 -135 -43 -171
-98 -22 -33 -23 -98 -3 -132 8 -14 20 -36 27 -50 7 -14 24 -43 38 -65 14 -22
31 -51 38 -65 6 -14 30 -54 51 -90 22 -36 49 -83 61 -105 49 -93 87 -149 113
-169 34 -25 118 -28 158 -6 15 8 53 30 85 48 33 18 86 49 119 69 33 19 78 46
100 58 38 21 94 54 203 117 26 15 73 42 105 60 105 59 112 63 152 88 41 26 53
33 152 88 190 107 220 127 238 161 32 63 11 152 -51 219 -25 26 -40 33 -80 37
-27 2 -58 1 -69 -2z"/>
<path d="M6610 5184 c-58 -25 -84 -68 -85 -135 0 -65 18 -98 75 -136 74 -51
195 -18 233 62 67 140 -75 273 -223 209z"/>
<path d="M10753 5182 c-78 -42 -107 -144 -61 -212 37 -55 82 -80 145 -80 95 0
163 67 163 161 0 51 -42 115 -88 135 -46 19 -120 17 -159 -4z"/>
<path d="M5860 4230 l0 -940 120 0 120 0 0 940 0 940 -120 0 -120 0 0 -940z"/>
<path d="M11457 4924 c-4 -4 -7 -72 -7 -151 l0 -143 -110 0 -111 0 3 -97 3
-98 107 -3 107 -3 4 -417 c4 -411 4 -418 28 -484 36 -102 106 -176 200 -213
69 -28 83 -30 206 -30 92 0 136 4 145 13 6 6 18 12 25 12 22 0 101 41 107 55
5 14 -26 103 -51 146 l-16 26 -37 -18 c-98 -48 -242 -40 -300 16 -57 55 -60
80 -60 507 l0 388 190 0 190 0 0 100 0 100 -190 0 -189 0 -3 148 -3 147 -116
3 c-63 1 -118 -1 -122 -4z"/>
<path d="M7825 4629 c-22 -5 -54 -16 -72 -24 -17 -8 -35 -15 -40 -15 -18 0
-108 -63 -155 -109 l-48 -45 0 97 0 97 -120 0 -120 0 0 -915 0 -916 123 3 122
3 3 337 2 337 38 -35 c60 -56 132 -101 212 -131 70 -26 85 -28 220 -28 136 0
150 2 225 30 105 39 182 85 245 148 109 109 172 240 191 398 29 234 -38 444
-187 593 -47 48 -131 107 -174 124 -14 6 -50 20 -80 33 -47 19 -76 23 -200 25
-80 2 -163 -1 -185 -7z m268 -219 c127 -32 226 -120 283 -250 27 -61 29 -73
29 -200 -1 -129 -2 -138 -32 -203 -66 -148 -179 -235 -333 -257 -273 -39 -488
118 -521 380 -33 265 89 474 310 532 88 23 172 22 264 -2z"/>
<path d="M9540 4626 c-131 -40 -171 -63 -261 -147 l-49 -47 0 99 0 100 -117
-3 -118 -3 -2 -889 c-2 -489 0 -899 3 -912 6 -24 8 -24 125 -24 l119 0 0 346
0 346 27 -32 c62 -74 182 -141 308 -172 22 -5 96 -7 165 -5 105 5 138 10 205
34 44 17 106 46 137 66 54 35 168 142 168 158 0 4 10 20 23 36 59 72 107 246
107 385 0 72 -24 234 -38 251 -5 7 -15 28 -22 47 -23 60 -81 143 -143 203 -33
31 -64 57 -68 57 -4 0 -20 11 -36 23 -15 13 -66 39 -113 57 -80 31 -93 33
-230 36 -102 3 -158 0 -190 -10z m273 -215 c127 -33 210 -103 274 -231 l38
-75 0 -145 c-1 -141 -2 -147 -32 -210 -90 -186 -270 -281 -478 -250 -117 17
-157 36 -242 114 -97 89 -134 187 -134 352 0 112 12 169 52 238 103 184 302
263 522 207z"/>
<path d="M6570 3960 l0 -670 120 0 120 0 0 670 0 670 -120 0 -120 0 0 -670z"/>
<path d="M10720 3960 l0 -670 120 0 120 0 0 670 0 670 -120 0 -120 0 0 -670z"/>
<path d="M5095 4345 c-33 -18 -71 -40 -85 -47 -14 -7 -43 -23 -65 -37 -22 -14
-60 -36 -85 -50 -25 -13 -63 -35 -85 -47 -22 -13 -62 -35 -90 -50 -27 -14 -60
-34 -75 -44 -14 -9 -56 -36 -95 -59 -81 -47 -115 -92 -115 -149 0 -40 8 -55
160 -317 14 -24 40 -69 58 -101 17 -33 38 -68 45 -79 25 -40 62 -101 82 -137
11 -20 30 -55 43 -77 51 -92 173 -97 271 -11 31 26 35 36 39 89 4 60 -3 79
-73 192 -5 9 -26 44 -45 78 -19 35 -42 75 -50 89 -9 15 -28 50 -44 77 -16 28
-40 67 -54 88 -14 20 -23 38 -21 40 2 1 20 11 39 21 19 10 62 35 95 54 74 44
145 83 210 118 28 15 52 30 55 34 3 3 28 19 56 34 84 45 111 119 74 202 -26
60 -55 92 -97 110 -49 21 -83 17 -148 -21z"/>
</g>
</svg>
